<svg width="12" height="13" viewBox="0 0 12 13" fill="none" xmlns="http://www.w3.org/2000/svg">
<path d="M6.002 12.125C5.17267 12.125 4.39267 11.9677 3.662 11.653C2.93178 11.3379 2.29644 10.9103 1.756 10.3703C1.21556 9.83033 0.787778 9.19567 0.472667 8.46633C0.157556 7.737 0 6.95722 0 6.127C0 5.29678 0.157556 4.51678 0.472667 3.787C0.787333 3.05678 1.21422 2.42144 1.75333 1.881C2.29244 1.34056 2.92733 0.912778 3.658 0.597667C4.38867 0.282556 5.16867 0.125 5.998 0.125C6.82733 0.125 7.60733 0.282556 8.338 0.597667C9.06822 0.912333 9.70356 1.33944 10.244 1.879C10.7844 2.41856 11.2122 3.05344 11.5273 3.78367C11.8424 4.51389 12 5.29367 12 6.123C12 6.95233 11.8427 7.73233 11.528 8.463C11.2133 9.19367 10.7858 9.829 10.2453 10.369C9.70489 10.909 9.07022 11.3368 8.34133 11.6523C7.61244 11.9679 6.83267 12.1254 6.002 12.125ZM6 11.4583C6.65111 11.4583 7.27778 11.3441 7.88 11.1157C8.48311 10.8868 9.03089 10.5548 9.52333 10.1197L2.00533 2.60233C1.57867 3.09433 1.24889 3.64167 1.016 4.24433C0.783111 4.847 0.666667 5.47389 0.666667 6.125C0.666667 7.61389 1.18333 8.875 2.21667 9.90833C3.25 10.9417 4.51111 11.4583 6 11.4583ZM9.99467 9.64767C10.4302 9.15567 10.762 8.60833 10.99 8.00567C11.2189 7.403 11.3333 6.77611 11.3333 6.125C11.3333 4.63611 10.8167 3.375 9.78333 2.34167C8.75 1.30833 7.48889 0.791667 6 0.791667C5.34622 0.791667 4.71644 0.903889 4.11067 1.12833C3.50533 1.35233 2.96089 1.68633 2.47733 2.13033L9.99467 9.64767Z" fill="#EF4444"/>
</svg>
