<svg width="24" height="24" viewBox="0 0 24 24" fill="none" xmlns="http://www.w3.org/2000/svg">
<path d="M18.93 20C17.2447 20 15.5167 19.578 13.746 18.734C11.9753 17.89 10.3303 16.705 8.811 15.179C7.29167 13.653 6.11 12.008 5.266 10.244C4.422 8.48 4 6.75533 4 5.07C4 4.76467 4.1 4.51033 4.3 4.307C4.5 4.10367 4.75 4.00133 5.05 4H7.523C7.795 4 8.03233 4.08567 8.235 4.257C8.43767 4.42833 8.57467 4.648 8.646 4.916L9.142 7.3C9.18867 7.58 9.18033 7.82433 9.117 8.033C9.05367 8.24167 8.94267 8.41267 8.784 8.546L6.59 10.592C7.00067 11.3367 7.45433 12.0287 7.951 12.668C8.44767 13.3073 8.97767 13.913 9.541 14.485C10.121 15.065 10.7457 15.605 11.415 16.105C12.0843 16.6043 12.819 17.0757 13.619 17.519L15.758 15.342C15.9207 15.1667 16.1037 15.051 16.307 14.995C16.5097 14.9397 16.7343 14.9287 16.981 14.962L19.084 15.392C19.356 15.4587 19.5767 15.5957 19.746 15.803C19.9153 16.0103 20 16.2477 20 16.515V18.95C20 19.25 19.898 19.5 19.694 19.7C19.49 19.9 19.2347 20 18.93 20ZM6.12 9.654L8.04 7.889C8.10333 7.83767 8.14467 7.767 8.164 7.677C8.184 7.587 8.18067 7.50367 8.154 7.427L7.711 5.307C7.685 5.205 7.64 5.12833 7.576 5.077C7.512 5.02567 7.429 5 7.327 5H5.275C5.19833 5 5.13433 5.02567 5.083 5.077C5.03167 5.12833 5.006 5.19233 5.006 5.269C5.02533 5.95233 5.13233 6.66567 5.327 7.409C5.52167 8.15233 5.78533 8.90067 6.12 9.654ZM14.571 17.988C15.247 18.3227 15.967 18.5703 16.731 18.731C17.4963 18.891 18.163 18.9767 18.731 18.988C18.8077 18.988 18.8717 18.9623 18.923 18.911C18.9743 18.8597 19 18.796 19 18.72V16.712C19 16.61 18.9743 16.5267 18.923 16.462C18.8717 16.398 18.795 16.3533 18.693 16.328L16.843 15.949C16.7657 15.923 16.698 15.9197 16.64 15.939C16.5827 15.959 16.522 16.0007 16.458 16.064L14.571 17.988Z" fill="#EA7913"/>
</svg>
