<svg width="20" height="20" viewBox="0 0 20 20" fill="none" xmlns="http://www.w3.org/2000/svg">
<path d="M5.46 14.49C5.57 14.6 5.68 14.7 5.79 14.81L7.60156 16.3945L8.7501 17.2891C9.8901 18.1191 11.0401 18.7791 12.1901 19.2691C13.3401 19.7591 14.4301 19.9991 15.4501 19.9991C16.1401 19.9991 16.7801 19.8691 17.3701 19.6291C17.3801 19.6291 17.3901 19.6191 17.4001 19.6191C18.0101 19.3691 18.5501 18.9791 19.0401 18.4391C19.3301 18.1191 19.5501 17.7791 19.7201 17.4191C19.7601 17.3391 19.7901 17.2591 19.8201 17.1791L19.8201 17.1791C19.9201 16.8991 19.9701 16.6091 19.9701 16.3291C19.9701 16.0491 19.9101 15.7991 19.8101 15.5491C19.7001 15.2991 19.5201 15.0891 19.2601 14.9091L15.9501 12.5591C15.7001 12.3891 15.4701 12.2591 15.2501 12.1691C15.0301 12.0791 14.8301 12.0391 14.6401 12.0391C14.3901 12.0391 14.1601 12.1091 13.9301 12.2491C13.7001 12.3691 13.4601 12.5591 13.2101 12.8091L12.4501 13.5591C12.3401 13.6691 12.2101 13.7291 12.0401 13.7291C11.9501 13.7291 11.8701 13.7191 11.7901 13.6891C11.7201 13.6591 11.6601 13.6291 11.6101 13.6091C11.4001 13.4991 11.1501 13.3391 10.8701 13.1291L9.04 11.52C8.94 11.42 8.83 11.32 8.73 11.22C8.21 10.69 7.73 10.16 7.28 9.64C6.84 9.12 6.53 8.69 6.35 8.36C6.33 8.3 6.3 8.24 6.27 8.16C6.25 8.08 6.24 8.01 6.24 7.93C6.24 7.77 6.29 7.64 6.4 7.53L7.16 6.74C7.4 6.5 7.59 6.26 7.72 6.03C7.86 5.8 7.93 5.56 7.93 5.32C7.93 5.13 7.88 4.92 7.79 4.71C7.7 4.49 7.57 4.26 7.39 4.01L5.07 0.74C4.89 0.48 4.66 0.3 4.4 0.18C4.15 0.0600001 3.87 0 3.59 0C2.85 0 2.15 0.31 1.51 0.94C0.98 1.44 0.6 2 0.36 2.61C0.12 3.21 0 3.86 0 4.54C0 5.58 0.24 6.67 0.71 7.81C1.19 8.94 1.85 10.08 2.67 11.22C3.5 12.36 4.43 13.45 5.46 14.49Z" fill="white"/>
</svg>
