<svg width="22" height="21" viewBox="0 0 22 21" fill="none" xmlns="http://www.w3.org/2000/svg">
<path d="M19.8999 8.85L20.4899 18.74C20.5099 19.01 20.3799 19.19 20.3099 19.27C20.2299 19.36 20.0599 19.5 19.7799 19.5H17.0499L19.2099 8.85H19.8999ZM20.9999 5L20.9899 5.02C21.0099 5.26 20.9899 5.51 20.9299 5.76L13.5599 19.29C13.3199 20.3 12.4199 21 11.3799 21H19.7799C21.0699 21 22.0899 19.91 21.9899 18.62L20.9999 5Z" fill="#EA7913"/>
<path d="M10.45 1.23941C10.55 0.839411 10.3 0.429411 9.9 0.329411C9.5 0.239411 9.09 0.479412 8.98999 0.879412L8.48999 2.94941H10.03L10.45 1.23941Z" fill="#EA7913"/>
<path d="M17.0499 1.21054C17.1399 0.800542 16.8799 0.410542 16.4699 0.320542C16.0699 0.230542 15.6699 0.490542 15.5799 0.900542L15.1299 2.97054H16.6699L17.0499 1.21054Z" fill="#EA7913"/>
<path d="M20.82 4.32945C20.49 3.52945 19.71 2.95945 18.75 2.95945H16.67L16.11 5.54945C16.03 5.89945 15.72 6.13945 15.38 6.13945C15.33 6.13945 15.27 6.13945 15.22 6.11945C14.82 6.02945 14.56 5.62945 14.64 5.22945L15.13 2.94945H10.03L9.4 5.54945C9.32 5.88945 9.01 6.11945 8.67 6.11945C8.61 6.11945 8.55 6.10945 8.49 6.09945C8.09 5.99945 7.84 5.59945 7.94 5.18945L8.48 2.93945H6.45C5.47 2.93945 4.6 3.57945 4.31 4.51945L0.099999 18.0695C-0.340002 19.5195 0.729999 20.9995 2.24 20.9995H15.38C16.42 20.9995 17.32 20.2995 17.56 19.2895L20.93 5.75945C20.99 5.50945 21.01 5.25945 20.99 5.01945C20.97 4.77945 20.92 4.53945 20.82 4.32945ZM13.7 15.7495H5.7C5.29 15.7495 4.95 15.4095 4.95 14.9995C4.95 14.5895 5.29 14.2495 5.7 14.2495H13.7C14.11 14.2495 14.45 14.5895 14.45 14.9995C14.45 15.4095 14.11 15.7495 13.7 15.7495ZM14.7 11.7495H6.7C6.29 11.7495 5.95 11.4095 5.95 10.9995C5.95 10.5895 6.29 10.2495 6.7 10.2495H14.7C15.11 10.2495 15.45 10.5895 15.45 10.9995C15.45 11.4095 15.11 11.7495 14.7 11.7495Z" fill="#EA7913"/>
</svg>
