<svg width="24" height="22" viewBox="0 0 24 22" fill="none" xmlns="http://www.w3.org/2000/svg">
<path d="M21.9299 5.76099L18.5599 19.291C18.3199 20.301 17.4199 21.001 16.3799 21.001H3.23989C1.72989 21.001 0.649903 19.5209 1.0999 18.0709L5.30989 4.55103C5.59989 3.61103 6.46991 2.96094 7.44991 2.96094H19.7499C20.6999 2.96094 21.4899 3.54094 21.8199 4.34094C22.0099 4.77094 22.0499 5.26099 21.9299 5.76099Z" stroke="#525252" stroke-width="1.5" stroke-miterlimit="10"/>
<path d="M16 21H20.78C22.07 21 23.08 19.91 22.99 18.62L22 5" stroke="#525252" stroke-width="1.5" stroke-miterlimit="10" stroke-linecap="round" stroke-linejoin="round"/>
<path d="M9.67969 5.38049L10.7197 1.06055" stroke="#525252" stroke-width="1.5" stroke-miterlimit="10" stroke-linecap="round" stroke-linejoin="round"/>
<path d="M16.3799 5.39075L17.3199 1.05078" stroke="#525252" stroke-width="1.5" stroke-miterlimit="10" stroke-linecap="round" stroke-linejoin="round"/>
<path d="M7.69995 11H15.7" stroke="#525252" stroke-width="1.5" stroke-miterlimit="10" stroke-linecap="round" stroke-linejoin="round"/>
<path d="M6.69995 15H14.7" stroke="#525252" stroke-width="1.5" stroke-miterlimit="10" stroke-linecap="round" stroke-linejoin="round"/>
</svg>
