<svg width="48" height="48" viewBox="0 0 48 48" fill="none" xmlns="http://www.w3.org/2000/svg">
<path d="M36 45H12C11.2044 45 10.4413 44.6839 9.87868 44.1213C9.31607 43.5587 9 42.7957 9 42V6C9 5.20435 9.31607 4.44129 9.87868 3.87868C10.4413 3.31607 11.2044 3 12 3H36C36.7957 3 37.5587 3.31607 38.1213 3.87868C38.6839 4.44129 39 5.20435 39 6V30.927L31.5 27.177L24 30.927V6H12V42H36V36H39V42C38.9988 42.7953 38.6824 43.5577 38.12 44.12C37.5577 44.6824 36.7953 44.9988 36 45ZM31.5 23.823L36 26.073V6H27V26.073L31.5 23.823Z" fill="#EA7913"/>
</svg>
