<svg width="20" height="21" viewBox="0 0 20 21" fill="none" xmlns="http://www.w3.org/2000/svg">
<mask id="mask0_1074_497" style="mask-type:luminance" maskUnits="userSpaceOnUse" x="0" y="0" width="20" height="21">
<path d="M20 0.625H0V20.625H20V0.625Z" fill="white"/>
</mask>
<g mask="url(#mask0_1074_497)">
<path d="M17.5 5.60856C14.725 5.33356 11.9333 5.19189 9.15 5.19189C7.5 5.19189 5.85 5.27523 4.2 5.44189L2.5 5.60856" stroke="#EF4444" stroke-linecap="round" stroke-linejoin="round"/>
<path d="M7.08325 4.7665L7.26659 3.67484C7.39992 2.88317 7.49992 2.2915 8.90825 2.2915H11.0916C12.4999 2.2915 12.6083 2.9165 12.7333 3.68317L12.9166 4.7665" stroke="#EF4444" stroke-linecap="round" stroke-linejoin="round"/>
<path d="M15.7084 8.24219L15.1667 16.6338C15.0751 17.9422 15.0001 18.9588 12.6751 18.9588H7.32508C5.00008 18.9588 4.92508 17.9422 4.83341 16.6338L4.29175 8.24219" stroke="#EF4444" stroke-linecap="round" stroke-linejoin="round"/>
<path d="M8.6084 14.375H11.3834" stroke="#EF4444" stroke-linecap="round" stroke-linejoin="round"/>
<path d="M7.91675 11.0415H12.0834" stroke="#EF4444" stroke-linecap="round" stroke-linejoin="round"/>
</g>
</svg>
