<svg width="20" height="20" viewBox="0 0 20 20" fill="none" xmlns="http://www.w3.org/2000/svg">
<mask id="mask0_40000358_28296" style="mask-type:luminance" maskUnits="userSpaceOnUse" x="0" y="0" width="20" height="20">
<path d="M20 0H0V20H20V0Z" fill="white"/>
</mask>
<g mask="url(#mask0_40000358_28296)">
<path d="M17.5 4.98381C14.725 4.70881 11.9333 4.56714 9.15 4.56714C7.5 4.56714 5.85 4.65047 4.2 4.81714L2.5 4.98381" stroke="#464646" stroke-width="1.5" stroke-linecap="round" stroke-linejoin="round"/>
<path d="M7.08398 4.14175L7.26732 3.05008C7.40065 2.25841 7.50065 1.66675 8.90898 1.66675H11.0923C12.5007 1.66675 12.609 2.29175 12.734 3.05841L12.9173 4.14175" stroke="#464646" stroke-width="1.5" stroke-linecap="round" stroke-linejoin="round"/>
<path d="M15.7077 7.61719L15.166 16.0088C15.0743 17.3172 14.9993 18.3338 12.6743 18.3338H7.32435C4.99935 18.3338 4.92435 17.3172 4.83268 16.0088L4.29102 7.61719" stroke="#464646" stroke-width="1.5" stroke-linecap="round" stroke-linejoin="round"/>
<path d="M8.60742 13.75H11.3824" stroke="#464646" stroke-width="1.5" stroke-linecap="round" stroke-linejoin="round"/>
<path d="M7.91602 10.4167H12.0827" stroke="#464646" stroke-width="1.5" stroke-linecap="round" stroke-linejoin="round"/>
</g>
</svg>
