<svg width="24" height="24" viewBox="0 0 24 24" fill="none" xmlns="http://www.w3.org/2000/svg">
<path d="M12 13.5C12.8284 13.5 13.5 12.8284 13.5 12C13.5 11.1716 12.8284 10.5 12 10.5C11.1716 10.5 10.5 11.1716 10.5 12C10.5 12.8284 11.1716 13.5 12 13.5Z" fill="#656565"/>
<path d="M12 5.5C12.8284 5.5 13.5 4.82843 13.5 4C13.5 3.17157 12.8284 2.5 12 2.5C11.1716 2.5 10.5 3.17157 10.5 4C10.5 4.82843 11.1716 5.5 12 5.5Z" fill="#656565"/>
<path d="M12 21.5C12.8284 21.5 13.5 20.8284 13.5 20C13.5 19.1716 12.8284 18.5 12 18.5C11.1716 18.5 10.5 19.1716 10.5 20C10.5 20.8284 11.1716 21.5 12 21.5Z" fill="#656565"/>
</svg>
