<svg width="21" height="21" viewBox="0 0 21 21" fill="none" xmlns="http://www.w3.org/2000/svg">
<mask id="mask0_40000254_69708" style="mask-type:luminance" maskUnits="userSpaceOnUse" x="3" y="3" width="15" height="15">
<path d="M18 3H3V18H18V3Z" fill="white"/>
</mask>
<g mask="url(#mask0_40000254_69708)">
<path d="M9.875 4.25H8.625C5.5 4.25 4.25 5.5 4.25 8.625V12.375C4.25 15.5 5.5 16.75 8.625 16.75H12.375C15.5 16.75 16.75 15.5 16.75 12.375V11.125" stroke="#464646" stroke-width="1.3" stroke-linecap="round" stroke-linejoin="round"/>
<path d="M13.0257 4.88632L8.10066 9.81133C7.91316 9.99883 7.72566 10.3676 7.68816 10.6363L7.41941 12.5176C7.31941 13.1988 7.80066 13.6738 8.48191 13.5801L10.3632 13.3113C10.6257 13.2738 10.9944 13.0863 11.1882 12.8988L16.1132 7.97382C16.9632 7.12382 17.3632 6.13632 16.1132 4.88632C14.8632 3.63632 13.8757 4.03632 13.0257 4.88632Z" stroke="#464646" stroke-width="1.3" stroke-miterlimit="10" stroke-linecap="round" stroke-linejoin="round"/>
<path d="M12.3184 5.59375C12.7371 7.0875 13.9059 8.25625 15.4059 8.68125" stroke="#464646" stroke-width="1.3" stroke-miterlimit="10" stroke-linecap="round" stroke-linejoin="round"/>
</g>
</svg>
