<svg width="25" height="25" viewBox="0 0 25 25" fill="none" xmlns="http://www.w3.org/2000/svg">
<g clip-path="url(#clip0_1644_21054)">
<path d="M9.52465 20.8234H5.33496C5.13605 20.8234 4.94528 20.7443 4.80463 20.6037C4.66398 20.463 4.58496 20.2723 4.58496 20.0734V15.8837C4.58505 15.685 4.66395 15.4945 4.80434 15.354L16.3656 3.79274C16.5062 3.65219 16.6969 3.57324 16.8957 3.57324C17.0946 3.57324 17.2853 3.65219 17.4259 3.79274L21.6156 7.97961C21.7561 8.12025 21.8351 8.31094 21.8351 8.50977C21.8351 8.7086 21.7561 8.89929 21.6156 9.03993L10.0543 20.604C9.91379 20.7444 9.7233 20.8233 9.52465 20.8234Z" stroke="#656565" stroke-width="1.5" stroke-linecap="round" stroke-linejoin="round"/>
<path d="M13.585 6.57349L18.835 11.8235" stroke="#656565" stroke-width="1.5" stroke-linecap="round" stroke-linejoin="round"/>
</g>
<defs>
<clipPath id="clip0_1644_21054">
<rect width="24" height="24" fill="white" transform="translate(0.834961 0.573486)"/>
</clipPath>
</defs>
</svg>
