<svg width="24" height="24" viewBox="0 0 24 24" fill="none" xmlns="http://www.w3.org/2000/svg">
<mask id="mask0_1024_12355" style="mask-type:luminance" maskUnits="userSpaceOnUse" x="3" y="3" width="18" height="18">
<path d="M20.5 3.5V20.5H3.5V3.5H20.5Z" fill="white" stroke="white"/>
</mask>
<g mask="url(#mask0_1024_12355)">
<path d="M11.25 4.5H9.75C6 4.5 4.5 6 4.5 9.75V14.25C4.5 18 6 19.5 9.75 19.5H14.25C18 19.5 19.5 18 19.5 14.25V12.75" stroke="white" stroke-linecap="round" stroke-linejoin="round"/>
<path d="M15.0299 5.26446L9.11991 11.1745C8.89491 11.3995 8.66991 11.842 8.62491 12.1645L8.30241 14.422C8.18241 15.2395 8.75991 15.8095 9.57741 15.697L11.8349 15.3745C12.1499 15.3295 12.5924 15.1045 12.8249 14.8795L18.7349 8.96946C19.7549 7.94946 20.2349 6.76446 18.7349 5.26446C17.2349 3.76446 16.0499 4.24446 15.0299 5.26446Z" stroke="white" stroke-miterlimit="10" stroke-linecap="round" stroke-linejoin="round"/>
<path d="M14.1826 6.11279C14.6851 7.90529 16.0876 9.30779 17.8876 9.81779" stroke="white" stroke-miterlimit="10" stroke-linecap="round" stroke-linejoin="round"/>
</g>
</svg>
