<svg width="24" height="24" viewBox="0 0 24 24" fill="none" xmlns="http://www.w3.org/2000/svg">
<path d="M12 7.5C15.3519 7.5 18.2279 9.56027 19.459 12.5C18.2279 15.4397 15.3519 17.5 12 17.5C8.648 17.5 5.77108 15.4399 4.54004 12.5C5.77108 9.56009 8.648 7.5 12 7.5ZM12 7.96582C10.5692 7.96582 9.16754 8.37067 7.9541 9.13379C6.74074 9.89691 5.76422 10.9874 5.13574 12.2812L5.0293 12.5L5.13574 12.7188C5.76422 14.0126 6.74074 15.1031 7.9541 15.8662C9.16754 16.6293 10.5692 17.0342 12 17.0342C13.4308 17.0342 14.8325 16.6293 16.0459 15.8662C17.2593 15.1031 18.2358 14.0126 18.8643 12.7188L18.9707 12.5L18.8643 12.2812C18.2358 10.9874 17.2593 9.89691 16.0459 9.13379C14.8325 8.37067 13.4308 7.96582 12 7.96582ZM12 10.7998C12.4447 10.7998 12.8718 10.9785 13.1875 11.2969C13.5033 11.6154 13.6816 12.0478 13.6816 12.5C13.6816 12.9522 13.5033 13.3846 13.1875 13.7031C12.8718 14.0215 12.4447 14.2002 12 14.2002C11.5553 14.2002 11.1282 14.0215 10.8125 13.7031C10.4967 13.3846 10.3184 12.9522 10.3184 12.5C10.3184 12.0478 10.4967 11.6154 10.8125 11.2969C11.1282 10.9785 11.5553 10.7998 12 10.7998Z" fill="#464646" stroke="#656565"/>
</svg>
