<svg width="16" height="17" viewBox="0 0 16 17" fill="none" xmlns="http://www.w3.org/2000/svg">
<path d="M8 6.425C8.57865 6.425 9.13361 6.65678 9.54278 7.06936C9.95195 7.48195 10.1818 8.04152 10.1818 8.625C10.1818 9.20848 9.95195 9.76806 9.54278 10.1806C9.13361 10.5932 8.57865 10.825 8 10.825C7.42135 10.825 6.86639 10.5932 6.45722 10.1806C6.04805 9.76806 5.81818 9.20848 5.81818 8.625C5.81818 8.04152 6.04805 7.48195 6.45722 7.06936C6.86639 6.65678 7.42135 6.425 8 6.425ZM8 3.125C11.6364 3.125 14.7418 5.40567 16 8.625C14.7418 11.8443 11.6364 14.125 8 14.125C4.36364 14.125 1.25818 11.8443 0 8.625C1.25818 5.40567 4.36364 3.125 8 3.125ZM1.58545 8.625C2.17328 9.83523 3.08604 10.8549 4.21998 11.5681C5.35393 12.2812 6.66356 12.6593 8 12.6593C9.33644 12.6593 10.6461 12.2812 11.78 11.5681C12.914 10.8549 13.8267 9.83523 14.4145 8.625C13.8267 7.41477 12.914 6.39512 11.78 5.68195C10.6461 4.96878 9.33644 4.5907 8 4.5907C6.66356 4.5907 5.35393 4.96878 4.21998 5.68195C3.08604 6.39512 2.17328 7.41477 1.58545 8.625Z" fill="#5676FF"/>
</svg>
