<svg width="24" height="24" viewBox="0 0 24 24" fill="none" xmlns="http://www.w3.org/2000/svg">
<path d="M3 11C3 7.229 3 5.343 4.172 4.172C5.344 3.001 7.229 3 11 3H13C16.771 3 18.657 3 19.828 4.172C20.999 5.344 21 7.229 21 11V13C21 16.771 21 18.657 19.828 19.828C18.656 20.999 16.771 21 13 21H11C7.229 21 5.343 21 4.172 19.828C3.001 18.656 3 16.771 3 13V11Z" stroke="#464646"/>
<path fill-rule="evenodd" clip-rule="evenodd" d="M18.998 14.2898L18.654 13.9468L18.639 13.9308C18.238 13.5308 17.915 13.2078 17.631 12.9688C17.339 12.7228 17.055 12.5348 16.722 12.4348C16.2511 12.2927 15.7489 12.2927 15.278 12.4348C14.945 12.5348 14.661 12.7228 14.368 12.9688C14.085 13.2078 13.762 13.5308 13.361 13.9308L13.346 13.9468C13.046 14.2468 12.846 14.4468 12.683 14.5808C12.522 14.7138 12.452 14.7358 12.423 14.7408C12.3024 14.7619 12.1782 14.7381 12.074 14.6738C12.05 14.6578 11.993 14.6118 11.893 14.4288C11.7548 14.1558 11.628 13.8773 11.513 13.5938L11.46 13.4698L11.447 13.4408C11.083 12.5908 10.793 11.9138 10.511 11.4128C10.224 10.9028 9.905 10.4978 9.446 10.2678C9.03467 10.0617 8.57444 9.97311 8.116 10.0118C7.603 10.0548 7.157 10.3118 6.701 10.6788C6.253 11.0398 5.732 11.5598 5.078 12.2148L5.056 12.2358L5 12.2928V13.7068L5.763 12.9428C6.444 12.2628 6.927 11.7808 7.328 11.4578C7.728 11.1368 7.983 11.0268 8.199 11.0078C8.47444 10.9845 8.75094 11.0378 8.998 11.1618C9.192 11.2588 9.388 11.4558 9.639 11.9028C9.892 12.3528 10.161 12.9778 10.54 13.8628L10.594 13.9878L10.604 14.0108C10.758 14.3708 10.888 14.6748 11.014 14.9068C11.144 15.1458 11.304 15.3728 11.548 15.5238C11.861 15.7176 12.2344 15.7895 12.597 15.7258C12.879 15.6758 13.111 15.5238 13.32 15.3508C13.524 15.1828 13.758 14.9488 14.036 14.6708L14.053 14.6538C14.473 14.2338 14.766 13.9418 15.013 13.7338C15.255 13.5288 15.419 13.4368 15.567 13.3918C15.849 13.3068 16.151 13.3068 16.433 13.3918C16.581 13.4368 16.745 13.5288 16.987 13.7328C17.234 13.9418 17.527 14.2338 17.947 14.6538L18.976 15.6818C18.989 15.2718 18.995 14.8118 18.998 14.2898Z" fill="black"/>
<path d="M16.5 9C17.3284 9 18 8.32843 18 7.5C18 6.67157 17.3284 6 16.5 6C15.6716 6 15 6.67157 15 7.5C15 8.32843 15.6716 9 16.5 9Z" fill="black"/>
</svg>
