<svg width="20" height="19" viewBox="0 0 20 19" fill="none" xmlns="http://www.w3.org/2000/svg">
<path d="M1.25 8.5C1.25 4.729 1.25 2.843 2.422 1.672C3.594 0.501 5.479 0.5 9.25 0.5H11.25C15.021 0.5 16.907 0.5 18.078 1.672C19.249 2.844 19.25 4.729 19.25 8.5V10.5C19.25 14.271 19.25 16.157 18.078 17.328C16.906 18.499 15.021 18.5 11.25 18.5H9.25C5.479 18.5 3.593 18.5 2.422 17.328C1.251 16.156 1.25 14.271 1.25 10.5V8.5Z" stroke="#EA7913"/>
<path fill-rule="evenodd" clip-rule="evenodd" d="M17.248 11.7898L16.904 11.4468L16.889 11.4308C16.488 11.0308 16.165 10.7078 15.881 10.4688C15.589 10.2228 15.305 10.0348 14.972 9.93478C14.5011 9.79274 13.9989 9.79274 13.528 9.93478C13.195 10.0348 12.911 10.2228 12.618 10.4688C12.335 10.7078 12.012 11.0308 11.611 11.4308L11.596 11.4468C11.296 11.7468 11.096 11.9468 10.933 12.0808C10.772 12.2138 10.702 12.2358 10.673 12.2408C10.5524 12.2619 10.4282 12.2381 10.324 12.1738C10.3 12.1578 10.243 12.1118 10.143 11.9288C10.0048 11.6558 9.878 11.3773 9.763 11.0938L9.71 10.9698L9.697 10.9408C9.333 10.0908 9.043 9.41378 8.761 8.91278C8.474 8.40278 8.155 7.99778 7.696 7.76778C7.28467 7.56169 6.82444 7.47311 6.366 7.51178C5.853 7.55478 5.407 7.81178 4.951 8.17878C4.503 8.53978 3.982 9.05978 3.328 9.71478L3.306 9.73578L3.25 9.79278V11.2068L4.013 10.4428C4.694 9.76278 5.177 9.28078 5.578 8.95778C5.978 8.63678 6.233 8.52678 6.449 8.50778C6.72444 8.48451 7.00094 8.53781 7.248 8.66178C7.442 8.75878 7.638 8.95578 7.889 9.40278C8.142 9.85278 8.411 10.4778 8.79 11.3628L8.844 11.4878L8.854 11.5108C9.008 11.8708 9.138 12.1748 9.264 12.4068C9.394 12.6458 9.554 12.8728 9.798 13.0238C10.111 13.2176 10.4844 13.2895 10.847 13.2258C11.129 13.1758 11.361 13.0238 11.57 12.8508C11.774 12.6828 12.008 12.4488 12.286 12.1708L12.303 12.1538C12.723 11.7338 13.016 11.4418 13.263 11.2338C13.505 11.0288 13.669 10.9368 13.817 10.8918C14.099 10.8068 14.401 10.8068 14.683 10.8918C14.831 10.9368 14.995 11.0288 15.237 11.2328C15.484 11.4418 15.777 11.7338 16.197 12.1538L17.226 13.1818C17.239 12.7718 17.245 12.3118 17.248 11.7898Z" fill="#EA7913"/>
<path d="M14.75 6.5C15.5784 6.5 16.25 5.82843 16.25 5C16.25 4.17157 15.5784 3.5 14.75 3.5C13.9216 3.5 13.25 4.17157 13.25 5C13.25 5.82843 13.9216 6.5 14.75 6.5Z" fill="#EA7913"/>
</svg>
