<svg width="25" height="25" viewBox="0 0 25 25" fill="none" xmlns="http://www.w3.org/2000/svg">
<path d="M3.75 11.334C3.75 7.56298 3.75 5.67698 4.922 4.50598C6.094 3.33498 7.979 3.33398 11.75 3.33398H13.75C17.521 3.33398 19.407 3.33398 20.578 4.50598C21.749 5.67798 21.75 7.56298 21.75 11.334V13.334C21.75 17.105 21.75 18.991 20.578 20.162C19.406 21.333 17.521 21.334 13.75 21.334H11.75C7.979 21.334 6.093 21.334 4.922 20.162C3.751 18.99 3.75 17.105 3.75 13.334V11.334Z" stroke="#EA7913"/>
<path fill-rule="evenodd" clip-rule="evenodd" d="M19.748 14.6238L19.404 14.2808L19.389 14.2648C18.988 13.8648 18.665 13.5418 18.381 13.3028C18.089 13.0568 17.805 12.8688 17.472 12.7688C17.0011 12.6267 16.4989 12.6267 16.028 12.7688C15.695 12.8688 15.411 13.0568 15.118 13.3028C14.835 13.5418 14.512 13.8648 14.111 14.2648L14.096 14.2808C13.796 14.5808 13.596 14.7808 13.433 14.9148C13.272 15.0478 13.202 15.0698 13.173 15.0748C13.0524 15.0959 12.9282 15.0721 12.824 15.0078C12.8 14.9918 12.743 14.9458 12.643 14.7628C12.5048 14.4898 12.378 14.2113 12.263 13.9278L12.21 13.8038L12.197 13.7748C11.833 12.9248 11.543 12.2478 11.261 11.7468C10.974 11.2368 10.655 10.8318 10.196 10.6018C9.78467 10.3957 9.32444 10.3071 8.866 10.3458C8.353 10.3888 7.907 10.6458 7.451 11.0128C7.003 11.3738 6.482 11.8938 5.828 12.5488L5.806 12.5698L5.75 12.6268V14.0408L6.513 13.2768C7.194 12.5968 7.677 12.1148 8.078 11.7918C8.478 11.4708 8.733 11.3608 8.949 11.3418C9.22444 11.3185 9.50094 11.3718 9.748 11.4958C9.942 11.5928 10.138 11.7898 10.389 12.2368C10.642 12.6868 10.911 13.3118 11.29 14.1968L11.344 14.3218L11.354 14.3448C11.508 14.7048 11.638 15.0088 11.764 15.2408C11.894 15.4798 12.054 15.7068 12.298 15.8578C12.611 16.0515 12.9844 16.1234 13.347 16.0598C13.629 16.0098 13.861 15.8578 14.07 15.6848C14.274 15.5168 14.508 15.2828 14.786 15.0048L14.803 14.9878C15.223 14.5678 15.516 14.2758 15.763 14.0678C16.005 13.8628 16.169 13.7708 16.317 13.7258C16.599 13.6408 16.901 13.6408 17.183 13.7258C17.331 13.7708 17.495 13.8628 17.737 14.0668C17.984 14.2758 18.277 14.5678 18.697 14.9878L19.726 16.0158C19.739 15.6058 19.745 15.1458 19.748 14.6238Z" fill="#EA7913"/>
<path d="M17.25 9.33398C18.0784 9.33398 18.75 8.66241 18.75 7.83398C18.75 7.00556 18.0784 6.33398 17.25 6.33398C16.4216 6.33398 15.75 7.00556 15.75 7.83398C15.75 8.66241 16.4216 9.33398 17.25 9.33398Z" fill="#EA7913"/>
</svg>
