<svg width="14" height="10" viewBox="0 0 14 10" fill="none" xmlns="http://www.w3.org/2000/svg">
<path d="M0.751953 5C0.751953 4.95033 0.766813 4.90207 0.793945 4.86133L0.825195 4.82324L4.83105 0.817383L4.83691 0.810547C4.85973 0.786062 4.88742 0.766588 4.91797 0.75293C4.94863 0.739266 4.98206 0.732038 5.01562 0.731445C5.04904 0.73086 5.08228 0.736565 5.11328 0.749023C5.14441 0.761595 5.17352 0.780944 5.19727 0.804688C5.22081 0.828342 5.23945 0.856743 5.25195 0.887695C5.26445 0.918707 5.2701 0.951924 5.26953 0.985352C5.26894 1.01892 5.26171 1.05234 5.24805 1.08301C5.23439 1.11359 5.21493 1.14123 5.19043 1.16406L5.18359 1.16992L5.17773 1.17676L1.60449 4.75H12.501C12.5672 4.75 12.6309 4.77641 12.6777 4.82324C12.7246 4.87012 12.751 4.93369 12.751 5C12.7509 5.06625 12.7246 5.12991 12.6777 5.17676C12.6309 5.2235 12.5672 5.25 12.501 5.25H1.60449L5.17773 8.82324L5.18359 8.83008L5.19043 8.83594C5.21493 8.8588 5.23441 8.88639 5.24805 8.91699C5.26164 8.9475 5.26888 8.98029 5.26953 9.01367C5.27012 9.04724 5.26453 9.08118 5.25195 9.1123C5.23942 9.1433 5.22087 9.17164 5.19727 9.19531C5.17352 9.21905 5.14441 9.23743 5.11328 9.25C5.08221 9.26252 5.04912 9.26914 5.01562 9.26855C4.98206 9.26796 4.94863 9.26073 4.91797 9.24707C4.88744 9.23344 4.85973 9.2139 4.83691 9.18945L4.83105 9.18262L0.825195 5.17676C0.778415 5.12992 0.751994 5.06619 0.751953 5Z" fill="#464646" stroke="#292929"/>
</svg>
