<svg width="24" height="24" viewBox="0 0 24 24" fill="none" xmlns="http://www.w3.org/2000/svg">
<path d="M5.75195 12C5.75195 11.9503 5.76681 11.9021 5.79395 11.8613L5.8252 11.8232L9.83105 7.81738L9.83691 7.81055C9.85973 7.78606 9.88742 7.76659 9.91797 7.75293C9.94863 7.73927 9.98206 7.73204 10.0156 7.73145C10.049 7.73086 10.0823 7.73656 10.1133 7.74902C10.1444 7.76159 10.1735 7.78094 10.1973 7.80469C10.2208 7.82834 10.2395 7.85674 10.252 7.8877C10.2644 7.91871 10.2701 7.95192 10.2695 7.98535C10.2689 8.01892 10.2617 8.05234 10.248 8.08301C10.2344 8.11359 10.2149 8.14123 10.1904 8.16406L10.1836 8.16992L10.1777 8.17676L6.60449 11.75H17.501C17.5672 11.75 17.6309 11.7764 17.6777 11.8232C17.7246 11.8701 17.751 11.9337 17.751 12C17.7509 12.0662 17.7246 12.1299 17.6777 12.1768C17.6309 12.2235 17.5672 12.25 17.501 12.25H6.60449L10.1777 15.8232L10.1836 15.8301L10.1904 15.8359C10.2149 15.8588 10.2344 15.8864 10.248 15.917C10.2616 15.9475 10.2689 15.9803 10.2695 16.0137C10.2701 16.0472 10.2645 16.0812 10.252 16.1123C10.2394 16.1433 10.2209 16.1716 10.1973 16.1953C10.1735 16.2191 10.1444 16.2374 10.1133 16.25C10.0822 16.2625 10.0491 16.2691 10.0156 16.2686C9.98206 16.268 9.94863 16.2607 9.91797 16.2471C9.88744 16.2334 9.85973 16.2139 9.83691 16.1895L9.83105 16.1826L5.8252 12.1768C5.77841 12.1299 5.75199 12.0662 5.75195 12Z" fill="#464646" stroke="#292929"/>
</svg>
