<svg width="24" height="24" viewBox="0 0 24 24" fill="none" xmlns="http://www.w3.org/2000/svg">
<path d="M6.42578 8.56934L3.35547 11.6416L3.00195 11.9951L3.35547 12.3486L6.42676 15.4189L6.07422 15.7725L2.64746 12.3486L2.64648 12.3477L2.58398 12.2725C2.56594 12.2455 2.5506 12.2166 2.53809 12.1865C2.51302 12.1262 2.5 12.0614 2.5 11.9961C2.50002 11.9308 2.51298 11.866 2.53809 11.8057C2.56321 11.7453 2.60011 11.6906 2.64648 11.6445L2.64746 11.6436L6.07324 8.2168L6.42578 8.56934Z" fill="#EA7913" stroke="#EA7913"/>
<path d="M13.5605 7.56934L9.49023 11.6416L9.13672 11.9951L9.49023 12.3486L13.5615 16.4189L13.209 16.7725L8.78223 12.3486L8.78125 12.3477L8.71875 12.2725C8.7007 12.2455 8.68536 12.2166 8.67285 12.1865C8.64778 12.1262 8.63477 12.0614 8.63477 11.9961C8.63479 11.9308 8.64775 11.866 8.67285 11.8057C8.69797 11.7453 8.73487 11.6906 8.78125 11.6445L8.78223 11.6436L13.208 7.2168L13.5605 7.56934Z" fill="#EA7913" stroke="#EA7913"/>
<path d="M21.6953 6.56934L16.625 11.6416L16.2715 11.9951L16.625 12.3486L21.6963 17.4189L21.3437 17.7725L15.917 12.3496L15.916 12.3477L15.8535 12.2725C15.8355 12.2455 15.8201 12.2166 15.8076 12.1865C15.7825 12.1262 15.7695 12.0614 15.7695 11.9961C15.7696 11.9308 15.7825 11.866 15.8076 11.8057C15.8327 11.7453 15.8696 11.6906 15.916 11.6445L15.917 11.6436L21.3428 6.2168L21.6953 6.56934Z" fill="#EA7913" stroke="#EA7913"/>
</svg>
