<svg width="20" height="20" viewBox="0 0 20 20" fill="none" xmlns="http://www.w3.org/2000/svg">
<path d="M17.4347 2.03448C17.567 2.2424 17.3404 2.48461 17.1001 2.43C16.6301 2.29 16.1101 2.22 15.5801 2.22H12.2798C12.1226 2.22 11.9745 2.14605 11.8801 2.02037L10.7301 0.49C10.5892 0.29044 10.7224 0 10.9666 0H13.7201C15.2811 0 16.6561 0.81073 17.4347 2.03448Z" fill="white"/>
<path d="M18.14 4.54C17.71 4.23 17.22 4 16.69 3.87C16.33 3.77 15.96 3.72 15.58 3.72H11.86C11.28 3.72 11.24 3.67 10.93 3.26L9.53 1.4C8.88 0.53 8.37 0 6.74 0H4.42C1.98 0 0 1.98 0 4.42V15.58C0 18.02 1.98 20 4.42 20H15.58C18.02 20 20 18.02 20 15.58V8.14C20 6.65 19.27 5.34 18.14 4.54ZM12.39 14.34H7.6C7.21 14.34 6.91 14.03 6.91 13.64C6.91 13.26 7.21 12.94 7.6 12.94H12.39C12.78 12.94 13.09 13.26 13.09 13.64C13.09 14.03 12.78 14.34 12.39 14.34Z" fill="white"/>
</svg>
