<svg width="25" height="24" viewBox="0 0 25 24" fill="none" xmlns="http://www.w3.org/2000/svg">
<mask id="mask0_914_38" style="mask-type:luminance" maskUnits="userSpaceOnUse" x="0" y="0" width="23" height="24">
<path d="M22.5 0H0.5V24H22.5V0Z" fill="white"/>
</mask>
<g mask="url(#mask0_914_38)">
<path d="M6.09985 10V8C6.09985 4.69 6.99985 2 11.4999 2C15.9999 2 16.8999 4.69 16.8999 8V10" stroke="#EA7913" stroke-width="1.5" stroke-linecap="round" stroke-linejoin="round"/>
<path d="M11.5 18.5C12.7426 18.5 13.75 17.3807 13.75 16C13.75 14.6193 12.7426 13.5 11.5 13.5C10.2574 13.5 9.25 14.6193 9.25 16C9.25 17.3807 10.2574 18.5 11.5 18.5Z" stroke="#EA7913" stroke-width="1.5" stroke-linecap="round" stroke-linejoin="round"/>
<path d="M16 22H7C3.4 22 2.5 21 2.5 17V15C2.5 11 3.4 10 7 10H16C19.6 10 20.5 11 20.5 15V17C20.5 21 19.6 22 16 22Z" stroke="#EA7913" stroke-width="1.5" stroke-linecap="round" stroke-linejoin="round"/>
</g>
</svg>
