<svg width="14" height="10" viewBox="0 0 14 10" fill="none" xmlns="http://www.w3.org/2000/svg">
<path d="M13.25 5C13.25 5.04967 13.2351 5.09793 13.208 5.13867L13.1768 5.17676L9.1709 9.18262L9.16504 9.18945C9.14222 9.21394 9.11453 9.23341 9.08398 9.24707C9.05332 9.26073 9.0199 9.26796 8.98633 9.26855C8.95292 9.26914 8.91967 9.26344 8.88867 9.25098C8.85755 9.23841 8.82843 9.21906 8.80469 9.19531C8.78114 9.17166 8.7625 9.14326 8.75 9.1123C8.73751 9.08129 8.73186 9.04808 8.73242 9.01465C8.73301 8.98108 8.74024 8.94766 8.75391 8.91699C8.76757 8.88641 8.78702 8.85877 8.81152 8.83594L8.81836 8.83008L8.82422 8.82324L12.3975 5.25H1.50098C1.43471 5.25 1.3711 5.22359 1.32422 5.17676C1.27734 5.12988 1.25098 5.06631 1.25098 5C1.25102 4.93375 1.27737 4.87009 1.32422 4.82324C1.37108 4.7765 1.43478 4.75 1.50098 4.75H12.3975L8.82422 1.17676L8.81836 1.16992L8.81152 1.16406C8.78702 1.1412 8.76754 1.11361 8.75391 1.08301C8.74032 1.0525 8.73308 1.01971 8.73242 0.986328C8.73183 0.95276 8.73743 0.918824 8.75 0.887695C8.76253 0.856697 8.78108 0.828362 8.80469 0.804688C8.82843 0.780946 8.85754 0.762573 8.88867 0.75C8.91974 0.737479 8.95283 0.730859 8.98633 0.731445C9.0199 0.732038 9.05332 0.739266 9.08398 0.75293C9.11451 0.766561 9.14222 0.786105 9.16504 0.810547L9.1709 0.817383L13.1768 4.82324C13.2235 4.87008 13.25 4.93381 13.25 5Z" fill="#464646" stroke="#292929"/>
</svg>
