<svg width="24" height="24" viewBox="0 0 24 24" fill="none" xmlns="http://www.w3.org/2000/svg">
<path d="M18.25 12C18.25 12.0497 18.2351 12.0979 18.208 12.1387L18.1768 12.1768L14.1709 16.1826L14.165 16.1895C14.1422 16.2139 14.1145 16.2334 14.084 16.2471C14.0533 16.2607 14.0199 16.268 13.9863 16.2686C13.9529 16.2691 13.9197 16.2634 13.8887 16.251C13.8575 16.2384 13.8284 16.2191 13.8047 16.1953C13.7811 16.1717 13.7625 16.1433 13.75 16.1123C13.7375 16.0813 13.7319 16.0481 13.7324 16.0146C13.733 15.9811 13.7402 15.9477 13.7539 15.917C13.7676 15.8864 13.787 15.8588 13.8115 15.8359L13.8184 15.8301L13.8242 15.8232L17.3975 12.25H6.50098C6.43471 12.25 6.3711 12.2236 6.32422 12.1768C6.27734 12.1299 6.25098 12.0663 6.25098 12C6.25102 11.9338 6.27737 11.8701 6.32422 11.8232C6.37108 11.7765 6.43478 11.75 6.50098 11.75H17.3975L13.8242 8.17676L13.8184 8.16992L13.8115 8.16406C13.787 8.1412 13.7675 8.11361 13.7539 8.08301C13.7403 8.0525 13.7331 8.01971 13.7324 7.98633C13.7318 7.95276 13.7374 7.91882 13.75 7.8877C13.7625 7.8567 13.7811 7.82836 13.8047 7.80469C13.8284 7.78095 13.8575 7.76257 13.8887 7.75C13.9197 7.73748 13.9528 7.73086 13.9863 7.73145C14.0199 7.73204 14.0533 7.73927 14.084 7.75293C14.1145 7.76656 14.1422 7.7861 14.165 7.81055L14.1709 7.81738L18.1768 11.8232C18.2235 11.8701 18.25 11.9338 18.25 12Z" fill="#464646" stroke="#292929"/>
</svg>
