<svg width="20" height="20" viewBox="0 0 20 20" fill="none" xmlns="http://www.w3.org/2000/svg">
<path d="M18.5 8.19H15.61C13.24 8.19 11.31 6.26 11.31 3.89V1C11.31 0.45 10.86 0 10.31 0H6.07C2.99 0 0.5 2 0.5 5.57V14.43C0.5 18 2.99 20 6.07 20H13.93C17.01 20 19.5 18 19.5 14.43V9.19C19.5 8.64 19.05 8.19 18.5 8.19Z" fill="#EA7913"/>
<path d="M13.7999 0.210481C13.3899 -0.199519 12.6799 0.0804814 12.6799 0.650481V4.14048C12.6799 5.60048 13.9199 6.81048 15.4299 6.81048C16.3799 6.82048 17.6999 6.82048 18.8299 6.82048C19.3999 6.82048 19.6999 6.15048 19.2999 5.75048C17.8599 4.30048 15.2799 1.69048 13.7999 0.210481Z" fill="#EA7913"/>
</svg>
