<svg width="48" height="49" viewBox="0 0 48 49" fill="none" xmlns="http://www.w3.org/2000/svg">
<path fill-rule="evenodd" clip-rule="evenodd" d="M13 46.5C15.9174 46.5 18.7153 45.3411 20.7782 43.2782C22.8411 41.2153 24 38.4174 24 35.5C24 32.5826 22.8411 29.7847 20.7782 27.7218C18.7153 25.6589 15.9174 24.5 13 24.5C10.0826 24.5 7.28473 25.6589 5.22183 27.7218C3.15893 29.7847 2 32.5826 2 35.5C2 38.4174 3.15893 41.2153 5.22183 43.2782C7.28473 45.3411 10.0826 46.5 13 46.5ZM13 28.514C13.2652 28.514 13.5196 28.6194 13.7071 28.8069C13.8946 28.9944 14 29.2488 14 29.514V34.5H18.986C19.2512 34.5 19.5056 34.6054 19.6931 34.7929C19.8806 34.9804 19.986 35.2348 19.986 35.5C19.986 35.7652 19.8806 36.0196 19.6931 36.2071C19.5056 36.3946 19.2512 36.5 18.986 36.5H14V41.486C14 41.7512 13.8946 42.0056 13.7071 42.1931C13.5196 42.3806 13.2652 42.486 13 42.486C12.7348 42.486 12.4804 42.3806 12.2929 42.1931C12.1054 42.0056 12 41.7512 12 41.486V36.5H7.014C6.74878 36.5 6.49443 36.3946 6.30689 36.2071C6.11936 36.0196 6.014 35.7652 6.014 35.5C6.014 35.2348 6.11936 34.9804 6.30689 34.7929C6.49443 34.6054 6.74878 34.5 7.014 34.5H12V29.514C12 29.2488 12.1054 28.9944 12.2929 28.8069C12.4804 28.6194 12.7348 28.514 13 28.514Z" fill="#F9D38E"/>
<path d="M8.58398 21V13C8.58398 11.1435 9.32148 9.36301 10.6342 8.05025C11.947 6.7375 13.7275 6 15.584 6H20.48C21.4783 5.99992 22.465 6.21336 23.374 6.626M23.374 6.626C24.1385 6.9736 24.8363 7.45596 25.43 8.05L37.366 19.99C37.966 20.59 38.446 21.282 38.788 22.04M23.374 6.626L23.376 18.04C23.376 19.1009 23.7974 20.1183 24.5476 20.8684C25.2977 21.6186 26.3151 22.04 27.376 22.04H38.788M27.5 43H32.416C34.2725 43 36.053 42.2625 37.3657 40.9497C38.6785 39.637 39.416 37.8565 39.416 36V24.94C39.416 23.93 39.198 22.942 38.788 22.04" stroke="#656565" stroke-width="1.5" stroke-linecap="round" stroke-linejoin="round"/>
</svg>
