<svg width="22" height="22" viewBox="0 0 22 22" fill="none" xmlns="http://www.w3.org/2000/svg">
<path d="M17.0001 6.16C16.9401 6.15 16.8701 6.15 16.8101 6.16C15.4301 6.11 14.3301 4.98 14.3301 3.58C14.3301 2.15 15.4801 1 16.9101 1C18.3401 1 19.4901 2.16 19.4901 3.58C19.4801 4.98 18.3801 6.11 17.0001 6.16Z" stroke="#525252" stroke-width="1.5" stroke-linecap="round" stroke-linejoin="round"/>
<path d="M15.9699 13.4402C17.3399 13.6702 18.8499 13.4302 19.9099 12.7202C21.3199 11.7802 21.3199 10.2402 19.9099 9.3002C18.8399 8.59016 17.3099 8.35016 15.9399 8.59016" stroke="#525252" stroke-width="1.5" stroke-linecap="round" stroke-linejoin="round"/>
<path d="M4.96998 6.16C5.02998 6.15 5.09998 6.15 5.15998 6.16C6.53998 6.11 7.63998 4.98 7.63998 3.58C7.63998 2.15 6.48998 1 5.05998 1C3.62998 1 2.47998 2.16 2.47998 3.58C2.48998 4.98 3.58998 6.11 4.96998 6.16Z" stroke="#525252" stroke-width="1.5" stroke-linecap="round" stroke-linejoin="round"/>
<path d="M5.99994 13.4402C4.62994 13.6702 3.11994 13.4302 2.05994 12.7202C0.649941 11.7802 0.649941 10.2402 2.05994 9.3002C3.12994 8.59016 4.65994 8.35016 6.02994 8.59016" stroke="#525252" stroke-width="1.5" stroke-linecap="round" stroke-linejoin="round"/>
<path d="M11.0001 13.6297C10.9401 13.6197 10.8701 13.6197 10.8101 13.6297C9.4301 13.5797 8.33008 12.4497 8.33008 11.0497C8.33008 9.6197 9.4801 8.46973 10.9101 8.46973C12.3401 8.46973 13.4901 9.6297 13.4901 11.0497C13.4801 12.4497 12.3801 13.5897 11.0001 13.6297Z" stroke="#525252" stroke-width="1.5" stroke-linecap="round" stroke-linejoin="round"/>
<path d="M8.09021 16.7794C6.68021 17.7194 6.68021 19.2594 8.09021 20.1994C9.6902 21.2694 12.3102 21.2694 13.9102 20.1994C15.3202 19.2594 15.3202 17.7194 13.9102 16.7794C12.3202 15.7194 9.6902 15.7194 8.09021 16.7794Z" stroke="#525252" stroke-width="1.5" stroke-linecap="round" stroke-linejoin="round"/>
</svg>
