<svg width="24" height="24" viewBox="0 0 24 24" fill="none" xmlns="http://www.w3.org/2000/svg">
<mask id="mask0_40000358_25610" style="mask-type:luminance" maskUnits="userSpaceOnUse" x="0" y="0" width="24" height="24">
<path d="M24 0H0V24H24V0Z" fill="white"/>
</mask>
<g mask="url(#mask0_40000358_25610)">
<path d="M17.531 7.77C17.461 7.76 17.391 7.76 17.321 7.77C15.771 7.72 14.541 6.45 14.541 4.89C14.541 3.3 15.831 2 17.431 2C19.021 2 20.321 3.29 20.321 4.89C20.311 6.45 19.081 7.72 17.531 7.77Z" fill="#EA7913"/>
<path d="M20.7916 14.7004C19.6716 15.4504 18.1016 15.7304 16.6516 15.5404C17.0316 14.7204 17.2316 13.8104 17.2416 12.8504C17.2416 11.8504 17.0216 10.9004 16.6016 10.0704C18.0816 9.8704 19.6516 10.1504 20.7816 10.9004C22.3616 11.9404 22.3616 13.6504 20.7916 14.7004Z" fill="#EA7913"/>
<path d="M6.44016 7.77C6.51016 7.76 6.58016 7.76 6.65016 7.77C8.20016 7.72 9.43016 6.45 9.43016 4.89C9.43016 3.29 8.14016 2 6.54016 2C4.95016 2 3.66016 3.29 3.66016 4.89C3.66016 6.45 4.89016 7.72 6.44016 7.77Z" fill="#EA7913"/>
<path d="M6.55109 12.8486C6.55109 13.8186 6.76109 14.7386 7.14109 15.5686C5.73109 15.7186 4.26109 15.4186 3.18109 14.7086C1.60109 13.6586 1.60109 11.9486 3.18109 10.8986C4.25109 10.1786 5.76109 9.88865 7.18109 10.0486C6.77109 10.8886 6.55109 11.8386 6.55109 12.8486Z" fill="#EA7913"/>
<path d="M12.1207 15.87C12.0407 15.86 11.9507 15.86 11.8607 15.87C10.0207 15.81 8.55078 14.3 8.55078 12.44C8.56078 10.54 10.0907 9 12.0007 9C13.9007 9 15.4407 10.54 15.4407 12.44C15.4307 14.3 13.9707 15.81 12.1207 15.87Z" fill="#EA7913"/>
<path d="M8.87078 17.9387C7.36078 18.9487 7.36078 20.6087 8.87078 21.6087C10.5907 22.7587 13.4107 22.7587 15.1307 21.6087C16.6407 20.5987 16.6407 18.9387 15.1307 17.9387C13.4207 16.7887 10.6007 16.7887 8.87078 17.9387Z" fill="#EA7913"/>
</g>
</svg>
